<svg width="24" height="24" viewBox="0 0 24 24" fill="none" xmlns="http://www.w3.org/2000/svg">
<path fill-rule="evenodd" clip-rule="evenodd" d="M9.63305 1.77676C9.81728 1.25692 10.1584 0.8069 10.6095 0.488694C11.0606 0.170488 11.5994 -0.000246249 12.1517 1.05041e-05H13.2382C13.8431 -0.00169775 14.4301 0.205 14.9001 0.58522C15.3701 0.96544 15.6943 1.4959 15.818 2.08708C15.9418 2.67826 15.8574 3.29395 15.5793 3.83026C15.3011 4.36656 14.8461 4.79064 14.2911 5.03091L11.9647 6.04695C11.8657 6.08985 11.7846 6.1658 11.7354 6.26178H14.7656C15.0579 6.26178 15.3383 6.37774 15.5451 6.58413C15.7518 6.79053 15.8679 7.07046 15.8679 7.36235C15.8679 7.65424 15.7518 7.93417 15.5451 8.14056C15.3383 8.34696 15.0579 8.46291 14.7656 8.46291H10.5855C10.4406 8.46314 10.297 8.43485 10.1631 8.37964C10.0291 8.32444 9.90741 8.24341 9.80486 8.14119C9.70231 8.03897 9.62096 7.91756 9.56545 7.78392C9.50994 7.65028 9.48137 7.50702 9.48137 7.36235V6.47309C9.48137 5.41303 10.1093 4.4551 11.0811 4.03072L13.4093 3.01468C13.5008 2.97721 13.5764 2.90888 13.6227 2.82157C13.6691 2.73426 13.6833 2.6335 13.663 2.53679C13.6427 2.44008 13.589 2.35354 13.5114 2.29222C13.4338 2.2309 13.3371 2.19867 13.2382 2.20114H12.1517C12.0554 2.2011 11.9614 2.23089 11.8828 2.2864C11.8041 2.3419 11.7446 2.42039 11.7125 2.51106C11.6642 2.64738 11.5895 2.77287 11.4926 2.88036C11.3958 2.98785 11.2787 3.07524 11.148 3.13754C10.884 3.26336 10.5808 3.27934 10.305 3.18196C10.1685 3.13375 10.0428 3.05916 9.93515 2.96244C9.82748 2.86573 9.73995 2.7488 9.67755 2.61831C9.55153 2.35479 9.53552 2.05207 9.63305 1.77676ZM20.399 0.500107C20.595 0.277163 20.8545 0.119141 21.1427 0.047087C21.4309 -0.0249665 21.7343 -0.00763062 22.0125 0.0967857C22.2906 0.201202 22.5303 0.387742 22.6995 0.63156C22.8688 0.875378 22.9597 1.1649 22.96 1.46156V4.69986C23.2411 4.71576 23.5055 4.83845 23.6989 5.04277C23.8923 5.24709 24 5.51755 24 5.79867C24 6.07978 23.8923 6.35024 23.6989 6.55456C23.5055 6.75888 23.2411 6.88157 22.96 6.89747V7.36411C22.96 7.656 22.8438 7.93593 22.6371 8.14233C22.4304 8.34872 22.15 8.46467 21.8576 8.46467C21.5653 8.46467 21.2849 8.34872 21.0782 8.14233C20.8714 7.93593 20.7553 7.656 20.7553 7.36411V6.89923H18.0567C17.7715 6.89973 17.4922 6.81802 17.2524 6.66391C17.0125 6.50981 16.8223 6.28986 16.7046 6.03048C16.5869 5.7711 16.5467 5.48331 16.5888 5.20167C16.631 4.92004 16.7536 4.65652 16.9421 4.44277L20.399 0.500107ZM19.6494 4.6981L20.7553 3.43553V4.6981H19.6494ZM15.3811 23.973C14.2989 24.0887 13.2095 23.8308 12.2946 23.2422C7.72858 20.1716 3.79984 16.2492 0.724324 11.6906C0.146619 10.7682 -0.0967382 9.67583 0.0348652 8.59586C0.166469 7.5159 0.665071 6.51366 1.44746 5.7564L2.11769 5.08726C2.41818 4.79047 2.8238 4.62399 3.24649 4.62399C3.66918 4.62399 4.07481 4.79047 4.3753 5.08726L7.09148 7.90471C7.38767 8.20171 7.55396 8.60376 7.55396 9.02288C7.55396 9.442 7.38767 9.84405 7.09148 10.1411C6.7942 10.4411 6.62746 10.846 6.62746 11.268C6.62746 11.69 6.7942 12.095 7.09148 12.395L11.5891 16.8853C11.8895 17.1821 12.2952 17.3486 12.7179 17.3486C13.1405 17.3486 13.5462 17.1821 13.8467 16.8853C14.1442 16.5896 14.5469 16.4236 14.9666 16.4236C15.3864 16.4236 15.7891 16.5896 16.0866 16.8853L18.9086 19.6852C19.2059 19.9852 19.3727 20.3901 19.3727 20.8121C19.3727 21.2341 19.2059 21.6391 18.9086 21.9391L18.2384 22.6083C17.4699 23.3753 16.4616 23.8569 15.3811 23.973Z" fill="#020617"/>
</svg>
